# xmcd
#
# Track frame offsets:
#	150
#	15886
#	33832
#	47044
#	76814
#	92681
#	115745
#	132241
#	147030
#	173388
#	199738
#
# Disc length: 2903 seconds
#
# Revision: 0
# Processed by: cddbd v1.5PL3 Copyright (c) Steve Scherf et al.
# Submitted via: dBpowerAMP V4.0
#
DISCID=770b550b
DTITLE=Remains of the Day - Hanging on Rebellion
DYEAR=2003
DGENRE=Country
TTITLE0=Dreaming Drowning
TTITLE1=Therapy For The Appointed Man
TTITLE2=Depicting The Subtleties
TTITLE3=Only to Infinity
TTITLE4=Comb of Prestige
TTITLE5=Prop
TTITLE6=The Curse on Us
TTITLE7=At The Threshold
TTITLE8=Elusive Reflections
TTITLE9=Dead Cells
TTITLE10=Confinement
EXTD=
EXTT0=
EXTT1=
EXTT2=
EXTT3=
EXTT4=
EXTT5=
EXTT6=
EXTT7=
EXTT8=
EXTT9=
EXTT10=
PLAYORDER=
